HIERARCHY
ROOT Hips
{
    OFFSET 0.000000 0.000000 0.000000
    CHANNELS 6 Xposition Yposition Zposition Zrotation Xrotation Yrotation
    JOINT Spine
    {
        OFFSET -0.000000 14.517291 0.000000
        CHANNELS 3 Zrotation Xrotation Yrotation
        JOINT Spine1
        {
            OFFSET -0.000000 37.558300 0.000000
            CHANNELS 3 Zrotation Xrotation Yrotation
            JOINT Neck
            {
                OFFSET -0.000000 37.404057 3.400369
                CHANNELS 3 Zrotation Xrotation Yrotation
                JOINT Head
                {
                    OFFSET -0.000000 24.785618 -3.540803
                    CHANNELS 3 Zrotation Xrotation Yrotation
                    End Site
                    {
                        OFFSET -0.000000 35.408028 0.000000
                    }
                }
            }
            JOINT LeftShoulder
            {
                OFFSET 6.992933 33.973492 -0.192664
                CHANNELS 3 Zrotation Xrotation Yrotation
                JOINT LeftArm
                {
                    OFFSET 21.527611 0.000000 0.000000
                    CHANNELS 3 Zrotation Xrotation Yrotation
                    JOINT LeftForeArm
                    {
                        OFFSET 56.353916 0.000000 0.000000
                        CHANNELS 3 Zrotation Xrotation Yrotation
                        JOINT LeftHand
                        {
                            OFFSET 47.774071 0.000000 0.000000
                            CHANNELS 3 Zrotation Xrotation Yrotation
                            End Site
                            {
                                OFFSET 26.556021 0.000000 0.000000
                            }
                        }
                    }
                }
            }
            JOINT RightShoulder
            {
                OFFSET -7.065357 33.973492 -0.192664
                CHANNELS 3 Zrotation Xrotation Yrotation
                JOINT RightArm
                {
                    OFFSET -21.527611 0.000000 0.000000
                    CHANNELS 3 Zrotation Xrotation Yrotation
                    JOINT RightForeArm
                    {
                        OFFSET -56.353916 0.000000 0.000000
                        CHANNELS 3 Zrotation Xrotation Yrotation
                        JOINT RightHand
                        {
                            OFFSET -47.774071 0.000000 0.000000
                            CHANNELS 3 Zrotation Xrotation Yrotation
                            End Site
                            {
                                OFFSET -26.556021 0.000000 0.000000
                            }
                        }
                    }
                }
            }
        }
    }
    JOINT LeftUpLeg
    {
        OFFSET 17.704014 0.000000 0.000000
        CHANNELS 3 Zrotation Xrotation Yrotation
        JOINT LeftLeg
        {
            OFFSET -0.000000 -81.181816 0.000000
            CHANNELS 3 Zrotation Xrotation Yrotation
            JOINT LeftFoot
            {
                OFFSET -0.000000 -62.821102 0.000000
                CHANNELS 3 Zrotation Xrotation Yrotation
                JOINT LeftToeBase
                {
                    OFFSET -0.000000 -11.507608 26.556021
                    CHANNELS 3 Zrotation Xrotation Yrotation
                    End Site
                    {
                        OFFSET -0.000000 0.000000 7.081605
                    }
                }
            }
        }
    }
    JOINT RightUpLeg
    {
        OFFSET -17.704014 0.000000 0.000000
        CHANNELS 3 Zrotation Xrotation Yrotation
        JOINT RightLeg
        {
            OFFSET -0.000000 -81.181816 0.000000
            CHANNELS 3 Zrotation Xrotation Yrotation
            JOINT RightFoot
            {
                OFFSET -0.000000 -62.821102 0.000000
                CHANNELS 3 Zrotation Xrotation Yrotation
                JOINT RightToeBase
                {
                    OFFSET -0.000000 -11.507608 26.556021
                    CHANNELS 3 Zrotation Xrotation Yrotation
                    End Site
                    {
                        OFFSET -0.000000 0.000000 7.081605
                    }
                }
            }
        }
    }
}
MOTION
Frames:    10
Frame Time:    0.008333
-19.993982    163.173096    -76.922737    -8.424149    -24.112415    44.167427    3.438218    6.036688    -4.644145    3.797191    6.617449    -1.706435    19.482565    1.886434    -5.335974    4.744217    -2.571452    -7.369735    12.905965    -1.020261    -23.372112    -42.257637    -21.420406    -83.342384    19.081001    -65.212814    -96.886185    -32.426208    -45.667019    -43.575775    13.377763    7.899556    -8.867029    31.840279    17.085823    16.472786    -13.010664    3.465715    34.295231    -23.423651    0.449983    33.025452    26.721140    0.106155    5.534298    -5.077446    39.453598    -17.221838    8.620483    -23.622585    34.489738    0.000000    0.000000    0.000000    -86.325111    -43.631107    -50.997375    8.081936    16.818775    -7.100428    21.886765    10.230700    -34.845657    0.000000    0.000000    0.000000    
-20.013884    163.177017    -76.920853    -8.416700    -24.137062    44.172897    3.433617    6.063115    -4.649566    3.793211    6.620782    -1.707947    19.485697    1.912588    -5.329764    4.727733    -2.624954    -7.359630    12.917264    -1.009835    -23.369747    -42.078697    -21.359291    -83.238113    19.295963    -65.171669    -96.376640    -32.381973    -45.557842    -43.640057    13.379575    7.909505    -8.867503    31.853386    17.085775    16.465662    -13.009470    3.454294    34.266693    -23.412334    0.430182    33.060207    26.732416    0.123241    5.569803    -5.025376    39.448124    -17.250881    8.614530    -23.623259    34.462479    0.000000    0.000000    0.000000    -86.293236    -43.633801    -50.973007    8.083573    16.829182    -7.089603    21.880415    10.212041    -34.828190    0.000000    0.000000    0.000000    
-20.034113    163.166183    -76.919815    -8.409207    -24.145210    44.181206    3.425046    6.071822    -4.648918    3.785587    6.629125    -1.707635    19.386267    1.883215    -5.356462    4.881517    -2.616560    -7.354231    12.915475    -1.004543    -23.395451    -41.881966    -21.316820    -83.118774    19.582607    -65.153786    -95.772545    -32.460533    -45.420807    -43.692902    13.372452    7.917670    -8.877459    31.871851    17.089851    16.451471    -13.015094    3.438328    34.250278    -23.394468    0.412433    33.091228    26.733072    0.122930    5.597988    -4.988767    39.456112    -17.259781    8.623011    -23.632769    34.429329    0.000000    0.000000    0.000000    -86.291466    -43.630600    -50.967422    8.095735    16.826353    -7.124854    21.866762    10.218214    -34.828579    0.000000    0.000000    0.000000    
-20.053814    163.155884    -76.914772    -8.397322    -24.164558    44.182735    3.418051    6.085586    -4.643802    3.783545    6.650313    -1.706533    19.367235    1.880297    -5.344829    4.874147    -2.645136    -7.340048    12.911183    -0.998865    -23.398275    -41.456299    -21.161673    -82.957298    20.378428    -65.392067    -94.649323    -32.691479    -45.351936    -43.936321    13.350874    7.898411    -8.877380    31.905373    17.120693    16.413157    -13.032845    3.412056    34.249245    -23.372595    0.394181    33.109650    26.740612    0.134750    5.629521    -4.948948    39.471397    -17.294235    8.618457    -23.654263    34.416000    0.000000    0.000000    0.000000    -86.269592    -43.636288    -50.966774    8.093122    16.832314    -7.120137    21.851362    10.217997    -34.820103    0.000000    0.000000    0.000000    
-20.069782    163.142303    -76.915787    -8.389597    -24.180540    44.185787    3.424690    6.101849    -4.641396    3.770890    6.653708    -1.704791    19.340286    1.870649    -5.338459    4.878609    -2.646447    -7.330659    12.901682    -0.981915    -23.412045    -41.241814    -21.104038    -82.840279    20.601236    -65.350212    -94.048149    -32.735016    -45.248119    -43.976761    13.330862    7.883721    -8.881834    31.935163    17.158749    16.375698    -13.058096    3.375309    34.239861    -23.357403    0.362739    33.136509    26.747225    0.135837    5.637624    -4.930310    39.493668    -17.318632    8.638655    -23.663210    34.419594    0.000000    0.000000    0.000000    -86.244385    -43.631207    -50.971191    8.088330    16.820969    -7.117291    21.843952    10.216184    -34.803616    0.000000    0.000000    0.000000    
-20.079693    163.128403    -76.913216    -8.375490    -24.198502    44.194496    3.424463    6.103361    -4.636641    3.765076    6.681685    -1.703770    19.334240    1.874028    -5.330983    4.843024    -2.673396    -7.326188    12.895083    -0.983260    -23.431845    -40.993069    -21.012249    -82.697533    20.716833    -65.340508    -93.522224    -32.786617    -45.262321    -44.017254    13.315008    7.862670    -8.885368    31.951147    17.140699    16.333458    -13.046188    3.374246    34.259315    -23.334888    0.363944    33.151775    26.755287    0.142723    5.611753    -4.943447    39.516693    -17.314781    8.653013    -23.679985    34.436596    0.000000    0.000000    0.000000    -86.220726    -43.621464    -50.961605    8.087407    16.822529    -7.103601    21.840876    10.182885    -34.802555    0.000000    0.000000    0.000000    
-20.091108    163.109863    -76.913788    -8.366982    -24.201771    44.201622    3.423924    6.098916    -4.629603    3.749578    6.695081    -1.701032    19.332407    1.890719    -5.329748    4.820456    -2.718158    -7.323591    12.894457    -0.960190    -23.447695    -40.906452    -21.002388    -82.598602    20.389719    -65.091263    -93.392487    -32.586330    -45.248238    -43.840641    13.300505    7.855792    -8.895551    31.970606    17.115725    16.302645    -13.033112    3.379123    34.261890    -23.327631    0.358817    33.189510    26.756052    0.129144    5.587551    -4.962298    39.550751    -17.291292    8.674518    -23.696970    34.446217    0.000000    0.000000    0.000000    -86.210564    -43.613667    -50.994419    8.064623    16.812996    -7.090292    21.834223    10.177011    -34.799404    0.000000    0.000000    0.000000    
-20.097933    163.094498    -76.913277    -8.354892    -24.213697    44.213093    3.426848    6.088284    -4.629063    3.741506    6.724570    -1.701342    19.309408    1.908052    -5.326825    4.813891    -2.753664    -7.314030    12.880955    -0.942860    -23.467197    -40.604027    -20.887718    -82.429642    20.519264    -65.050003    -92.800064    -32.578068    -45.232044    -43.889229    13.273765    7.848341    -8.893986    31.991123    17.117641    16.263935    -13.043986    3.354774    34.281776    -23.306051    0.344826    33.199284    26.764866    0.126470    5.541752    -5.002018    39.579876    -17.275009    8.692377    -23.715929    34.478447    0.000000    0.000000    0.000000    -86.185837    -43.593800    -50.989197    8.059051    16.794371    -7.112078    21.848289    10.157200    -34.792068    0.000000    0.000000    0.000000    
-20.104771    163.078384    -76.911255    -8.342132    -24.226152    44.216717    3.430301    6.073120    -4.618727    3.723369    6.760258    -1.698102    19.316261    1.932625    -5.325271    4.779116    -2.802130    -7.312789    12.879871    -0.917680    -23.487984    -40.265003    -20.748026    -82.250328    20.515907    -65.011566    -92.329468    -32.459663    -45.358551    -43.802017    13.263083    7.837915    -8.890882    32.005997    17.111382    16.232914    -13.060226    3.335477    34.265541    -23.266895    0.332740    33.234886    26.778486    0.131499    5.517426    -5.036449    39.606457    -17.250059    8.699744    -23.737507    34.483078    0.000000    0.000000    0.000000    -86.160034    -43.588299    -50.993977    8.016463    16.800587    -7.036786    21.905371    10.106768    -34.824516    0.000000    0.000000    0.000000    
-20.110317    163.059753    -76.912041    -8.329765    -24.233646    44.226395    3.425414    6.058851    -4.607602    3.723047    6.793925    -1.695697    19.286831    1.903681    -5.324563    4.778021    -2.778588    -7.314255    12.880499    -0.891652    -23.497849    -39.958717    -20.600889    -82.091011    20.576752    -64.931305    -91.789169    -32.308537    -45.414124    -43.629070    13.239720    7.817778    -8.901590    32.013512    17.087831    16.205492    -13.037004    3.342004    34.271820    -23.255028    0.331191    33.258575    26.784252    0.124641    5.507653    -5.046892    39.642345    -17.256804    8.727754    -23.750195    34.484413    0.000000    0.000000    0.000000    -86.081413    -43.494949    -50.924061    8.715605    16.194811    -8.714293    20.289257    10.962034    -34.529617    0.000000    0.000000    0.000000    
